<svg width="inherit" height="inherit" viewBox="0 0 32 32" fill="none" xmlns="http://www.w3.org/2000/svg">
<path d="M4 12.076V22C4 23.0609 4.42143 24.0783 5.17157 24.8284C5.92172 25.5786 6.93913 26 8 26H24C25.0609 26 26.0783 25.5786 26.8284 24.8284C27.5786 24.0783 28 23.0609 28 22V10C28 8.93913 27.5786 7.92172 26.8284 7.17157C26.0783 6.42143 25.0609 6 24 6H8C6.93913 6 5.92172 6.42143 5.17157 7.17157C4.42143 7.92172 4 8.93913 4 10V12.076ZM8 8H24C24.5304 8 25.0391 8.21071 25.4142 8.58579C25.7893 8.96086 26 9.46957 26 10V11.48L16 16.864L6 11.48V10C6 9.46957 6.21071 8.96086 6.58579 8.58579C6.96086 8.21071 7.46957 8 8 8ZM6 13.752L15.526 18.88C15.6717 18.9584 15.8345 18.9995 16 18.9995C16.1655 18.9995 16.3283 18.9584 16.474 18.88L26 13.752V22C26 22.5304 25.7893 23.0391 25.4142 23.4142C25.0391 23.7893 24.5304 24 24 24H8C7.46957 24 6.96086 23.7893 6.58579 23.4142C6.21071 23.0391 6 22.5304 6 22V13.752Z" fill="white"/>
</svg>
