<svg width="inherit" height="inherit" viewBox="0 0 50 50" fill="none" xmlns="http://www.w3.org/2000/svg">
<path d="M47.9167 22.9167H43.75V18.75H39.5833V22.9167H35.4167V27.0833H39.5833V31.25H43.75V27.0833H47.9167M16.6667 22.9167V27.9167H25C24.5833 30 22.5 34.1667 16.6667 34.1667C11.6667 34.1667 7.70834 30 7.70834 25C7.70834 20 11.6667 15.8333 16.6667 15.8333C19.5833 15.8333 21.4583 17.0833 22.5 18.125L26.4583 14.375C23.9583 11.875 20.625 10.4167 16.6667 10.4167C8.54168 10.4167 2.08334 16.875 2.08334 25C2.08334 33.125 8.54168 39.5833 16.6667 39.5833C25 39.5833 30.625 33.75 30.625 25.4167C30.625 24.375 30.625 23.75 30.4167 22.9167H16.6667Z" fill="white"/>
</svg>
