<svg width="inherit" height="inherit" viewBox="0 0 43 46" fill="none" xmlns="http://www.w3.org/2000/svg">
<path d="M41.4905 41.3071V18.0903C41.4905 17.6663 41.4002 17.2481 41.2268 16.8688C41.0533 16.4896 40.8015 16.1597 40.4912 15.9052L23.0034 1.5655C22.5709 1.21091 22.045 1.01923 21.5044 1.01923C20.9639 1.01923 20.4379 1.21091 20.0055 1.5655L2.51762 15.9052C2.20734 16.1597 1.95551 16.4896 1.78206 16.8688C1.60861 17.2481 1.51831 17.6663 1.51831 18.0903V41.3071C1.51831 42.0315 1.78152 42.7262 2.25004 43.2385C2.71855 43.7507 3.35399 44.0385 4.01657 44.0385H14.0096C14.6722 44.0385 15.3077 43.7507 15.7762 43.2385C16.2447 42.7262 16.5079 42.0315 16.5079 41.3071V33.1129C16.5079 32.3885 16.7711 31.6938 17.2396 31.1816C17.7081 30.6693 18.3436 30.3816 19.0062 30.3816H24.0027C24.6653 30.3816 25.3007 30.6693 25.7692 31.1816C26.2377 31.6938 26.5009 32.3885 26.5009 33.1129V41.3071C26.5009 42.0315 26.7642 42.7262 27.2327 43.2385C27.7012 43.7507 28.3366 44.0385 28.9992 44.0385H38.9923C39.6548 44.0385 40.2903 43.7507 40.7588 43.2385C41.2273 42.7262 41.4905 42.0315 41.4905 41.3071Z" stroke="black" stroke-width="2" stroke-linecap="round" stroke-linejoin="round"/>
</svg>
