<svg width="inherit" height="inherit" viewBox="0 0 274 79" fill="inherit" xmlns="http://www.w3.org/2000/svg">
<path d="M270.321 39.0667C268.719 13.0387 254.332 9.23313 242.734 9.23189H242.733C239.802 9.23313 237.052 9.47506 234.729 9.66516C234.709 8.48139 234.763 7.21369 234.976 5.81267C234.98 5.79292 234.971 5.77564 234.968 5.75713C234.971 5.74725 234.976 5.73737 234.976 5.7275C234.976 5.29177 234.099 4.9375 233.014 4.9375C231.931 4.9375 231.054 5.29177 231.054 5.7275C230.757 7.13974 230.352 8.53031 229.843 9.88858C214.54 9.97498 194.382 12.2438 191.305 38.1829C189.073 57.0084 208.744 74.0625 230.875 74.0625C253.006 74.0625 271.484 57.9848 270.321 39.0667ZM235.553 13.3152C236.093 13.2708 236.653 13.2251 237.229 13.1819C236.537 13.4423 235.865 13.7127 235.232 13.9842C235.186 13.7892 235.154 13.5571 235.112 13.3498L235.553 13.3152ZM228.211 13.609C228.038 13.946 227.869 14.2694 227.707 14.5669C227.317 14.2374 226.906 13.9315 226.475 13.651C227.053 13.6324 227.632 13.6201 228.211 13.609ZM258.021 59.6524C251.147 66.4575 241.252 70.3594 230.875 70.3594C220.3 70.3594 209.797 65.9848 202.776 58.6575C197.088 52.7189 194.412 45.5929 195.243 38.5903C196.803 25.4466 203.024 19.1686 211.009 16.195C218.746 14.852 226.026 17.3183 226.026 17.3183C226.026 17.3183 209.479 13.4794 202.99 33.3503C211.156 21.4522 225.208 24.9541 228.905 20.5684C228.905 29.0473 235.498 24.9331 238.83 28.7523C243.117 33.6626 244.686 42.4613 249.617 44.1943C244.76 34.4477 252.713 34.8279 241.539 21.7472C247.425 25.1652 250.477 21.7065 258.515 24.7862C251.638 14.2805 240.637 17.3183 240.637 17.3183C240.637 17.3183 245.114 13.5053 249.86 13.6115C257.88 15.3618 265.256 21.251 266.366 39.2803C266.818 46.6433 263.854 53.878 258.021 59.6524" fill="inherit"/>
<path d="M70.6873 55.3111C69.9191 55.3111 69.357 55.0814 69.0001 54.6224C68.6436 54.1634 68.4653 53.42 68.4653 52.3925V51.9989C68.4653 50.9714 68.6436 50.2283 69.0001 49.7693C69.357 49.2881 69.9191 49.0477 70.6873 49.0477H85.5844C86.3525 49.0477 86.9012 49.2881 87.2303 49.7693C87.5868 50.2283 87.7655 50.9714 87.7655 51.9989V52.3925C87.7655 53.42 87.5868 54.1634 87.2303 54.6224C86.9012 55.0814 86.3525 55.3111 85.5844 55.3111H70.6873ZM99.3289 67.7717C96.3935 67.7717 94.9258 67.1596 94.9258 65.9353V29.1763C94.9258 28.3674 95.1588 27.7878 95.6253 27.4383C96.0917 27.0666 96.8326 26.8809 97.8473 26.8809H113.238C117.792 26.8809 121.825 27.766 125.337 29.5369C128.848 31.3075 130.604 34.6741 130.604 39.6367C130.604 43.0469 129.589 45.703 127.559 47.6048C125.528 49.4849 123.238 50.7528 120.687 51.4086C118.163 52.0647 115.913 52.3925 113.938 52.3925H106.201V65.9353C106.201 67.1596 104.734 67.7717 101.798 67.7717H99.3289ZM112.703 44.6865C114.459 44.6865 115.954 44.3148 117.189 43.5717C118.451 42.8283 119.082 41.5167 119.082 39.6367C119.082 37.7348 118.451 36.401 117.189 35.6361C115.927 34.8709 114.432 34.4884 112.703 34.4884H106.201V44.6865H112.703ZM152.455 68.1653C146.667 68.1653 142.25 66.8097 139.205 64.0989C136.187 61.3885 134.678 57.486 134.678 52.3925C134.678 47.3208 136.187 43.4404 139.205 40.7515C142.25 38.0625 146.667 36.718 152.455 36.718C158.244 36.718 162.634 38.0625 165.624 40.7515C168.642 43.4186 170.15 47.2989 170.15 52.3925C170.15 57.486 168.642 61.3885 165.624 64.0989C162.634 66.8097 158.244 68.1653 152.455 68.1653ZM152.455 61.3119C154.76 61.3119 156.447 60.5685 157.517 59.082C158.614 57.5954 159.163 55.3655 159.163 52.3925C159.163 49.4412 158.614 47.2224 157.517 45.7359C156.447 44.2493 154.76 43.5059 152.455 43.5059C147.901 43.5059 145.624 46.4682 145.624 52.3925C145.624 55.3437 146.173 57.5736 147.271 59.082C148.395 60.5685 150.123 61.3119 152.455 61.3119ZM188.545 68.1653C185.061 68.1653 182.4 67.3893 180.562 65.8369C178.751 64.2631 177.846 61.8801 177.846 58.6884V25.6019C177.846 24.3339 179.314 23.7 182.249 23.7H184.307C185.816 23.7 186.913 23.8638 187.599 24.1919C188.312 24.4978 188.669 24.9679 188.669 25.6019V58.7868C188.669 59.683 188.875 60.3281 189.286 60.7216C189.697 61.1151 190.384 61.3119 191.343 61.3119C191.59 61.3119 191.961 61.2679 192.455 61.1806C192.592 61.1588 192.729 61.137 192.866 61.1151C193.003 61.0933 193.154 61.0822 193.319 61.0822C193.73 61.0822 194.101 61.3774 194.43 61.9677C194.787 62.5362 195.061 63.1809 195.253 63.9025C195.445 64.6019 195.541 65.0609 195.541 65.2795C195.541 67.2033 193.209 68.1653 188.545 68.1653ZM208.956 68.1653C205.225 68.1653 202.482 67.3893 200.726 65.8369C198.998 64.2631 198.134 62.1863 198.134 59.6068C198.134 57.6609 198.641 55.9122 199.656 54.3602C200.671 52.786 202.729 51.4633 205.829 50.3922C208.929 49.321 213.359 48.7855 219.121 48.7855V46.8507C219.121 45.714 218.668 44.8722 217.763 44.3259C216.857 43.7792 215.417 43.5059 213.442 43.5059C211.796 43.5059 210.383 43.6483 209.203 43.9324C208.024 44.1946 206.748 44.5552 205.376 45.0146C204.663 45.2768 204.224 45.4078 204.059 45.4078C203.565 45.4078 203.017 45.1126 202.413 44.5227C201.837 43.9324 201.33 43.2547 200.891 42.4895C200.452 41.7242 200.232 41.145 200.232 40.7515C200.232 40.0739 200.836 39.4288 202.043 38.8167C203.278 38.1827 204.965 37.68 207.105 37.3083C209.245 36.9148 211.617 36.718 214.224 36.718C219.711 36.718 223.702 37.5927 226.199 39.3415C228.696 41.0685 229.944 43.4404 229.944 46.4571V57.3768C229.944 59.1914 229.999 60.6014 230.108 61.6071C230.245 62.6124 230.424 63.6073 230.643 64.5909C230.781 65.1812 230.849 65.5965 230.849 65.8369C230.849 66.2741 230.328 66.6351 229.285 66.9192C228.27 67.2033 227.104 67.4111 225.788 67.5421C224.471 67.6734 223.414 67.7388 222.619 67.7388C221.768 67.7388 221.151 67.4548 220.767 66.8863C220.41 66.296 220.122 65.4981 219.903 64.4925C219.875 64.3615 219.848 64.2302 219.82 64.0989C219.793 63.968 219.752 63.8367 219.697 63.7057C219.422 64.1211 218.833 64.6785 217.927 65.3779C217.05 66.0774 215.842 66.7224 214.306 67.3127C212.77 67.8809 210.987 68.1653 208.956 68.1653ZM212.536 61.3119C213.909 61.3119 215.198 60.9731 216.405 60.2952C217.612 59.5957 218.517 58.7103 219.121 57.6391V54.4256C212.29 54.4256 208.874 55.8574 208.874 58.7213C208.874 59.4862 209.19 60.1095 209.821 60.5903C210.479 61.0715 211.384 61.3119 212.536 61.3119Z" fill="inherit"/>
<path d="M6.59235 59.866C4.59201 57.8735 3.05182 55.5868 1.97264 53.0069C0.840784 50.3744 0.189313 47.7364 0.0182279 45.0935C-0.152857 42.4505 0.880396 39.5557 3.11798 36.4094C5.3029 33.2104 7.6787 30.7931 10.2454 29.1568C12.8778 27.4789 15.8326 26.0682 19.1102 24.9249C22.4531 23.7399 25.2566 23.4145 27.5208 23.9494C32.6933 25.1244 36.5958 27.0225 39.2283 29.6447C40.6496 31.0607 41.4659 32.5187 41.6761 34.0183C41.9526 35.4763 41.9791 37.2224 41.7554 39.2572C41.5843 40.9143 40.4389 42.6762 38.3198 44.5431C36.2667 46.3681 34.0553 48.0356 31.6862 49.546C30.1726 50.5107 28.2245 51.5805 25.8419 52.7554C23.4071 53.8776 20.9854 54.9055 18.5767 55.8386C19.7613 56.8036 21.1169 57.6166 22.6436 58.2774C24.1703 58.9379 25.5592 59.2999 26.8094 59.363C29.1258 59.5201 31.1068 59.2895 32.7523 58.6706C34.4632 58.0098 36.4374 56.9665 38.675 55.5401C41.0445 54.0297 42.9331 52.3098 44.3414 50.3797C45.5129 48.859 46.625 47.763 47.678 47.0917C48.9283 46.2949 50.1988 46.0011 51.4887 46.211C52.7259 46.3681 53.8181 46.9188 54.7658 47.8627C56.0818 49.1739 56.207 50.8572 55.1409 52.9129C54.0747 54.9686 52.5017 57.0031 50.4221 59.0168C48.3556 60.9361 46.5655 62.3783 45.0519 63.3434C41.9589 65.3151 38.517 66.7781 34.7261 67.7324C30.9357 68.6867 27.27 68.9594 23.7295 68.5504C20.6757 68.089 17.6619 67.1294 14.6873 65.6714C11.66 64.161 8.96184 62.2259 6.59235 59.866ZM17.4516 35.5283C16.0037 36.4514 14.7926 37.6102 13.8188 39.0054C12.7923 40.3478 12.2129 41.7058 12.0814 43.0798C11.8972 44.8312 11.8905 46.1687 12.0616 47.0914C12.2457 47.9201 12.7986 48.9006 13.7198 50.0336C15.7863 49.4043 19.4191 47.4326 24.6182 44.1184C27.4478 42.3142 29.2775 40.5889 30.1068 38.9426C31.0019 37.2539 30.8965 35.8591 29.7908 34.7577C28.6855 33.6563 26.8297 33.2054 24.2234 33.4045C21.6175 33.6039 19.3601 34.3118 17.4516 35.5283Z" fill="inherit"/>
</svg>
