<svg width="inherit" height="inherit" viewBox="0 0 24 34" fill="inherit" xmlns="http://www.w3.org/2000/svg">
<path d="M21.3501 11.724L15.5451 10.4988L12.9501 2.85879C12.8792 2.64961 12.7626 2.48027 12.6186 2.37734C12.2573 2.11836 11.8184 2.33418 11.6377 2.85879L9.04276 10.4988L3.23778 11.724C3.07773 11.7572 2.93141 11.8668 2.81938 12.0328C2.68394 12.235 2.60931 12.507 2.61188 12.789C2.61445 13.071 2.69402 13.34 2.8331 13.5369L7.03308 19.4836L6.04081 27.8807C6.01754 28.076 6.03243 28.2769 6.08378 28.4606C6.13513 28.6442 6.22089 28.8033 6.33133 28.9198C6.44178 29.0363 6.57249 29.1056 6.70865 29.1197C6.84481 29.1338 6.98096 29.0922 7.10167 28.9996L12.2939 25.0352L17.4862 28.9996C17.6279 29.1092 17.7925 29.1457 17.9503 29.1059C18.3481 29.0062 18.6156 28.4584 18.547 27.8807L17.5548 19.4836L21.7547 13.5369C21.8691 13.3742 21.9445 13.1617 21.9674 12.9293C22.0291 12.3482 21.7502 11.8104 21.3501 11.724ZM15.7874 18.6469L16.6128 25.6295L12.2939 22.3357L7.97505 25.6328L8.80041 18.6502L5.3069 13.7029L10.1356 12.6836L12.2939 6.33184L14.4522 12.6836L19.2809 13.7029L15.7874 18.6469Z" fill="inherit"/>
</svg>
