<svg width="inherit" height="inherit" viewBox="0 0 43 46" fill="none" xmlns="http://www.w3.org/2000/svg">
<path d="M39.2832 1.09473H17.2832C16.7528 1.09473 16.2441 1.378 15.869 1.88223C15.4939 2.38646 15.2832 3.07034 15.2832 3.78343V33.3591C15.2832 34.0722 15.4939 34.7561 15.869 35.2604C16.2441 35.7646 16.7528 36.0479 17.2832 36.0479H39.2832C39.8136 36.0479 40.3223 35.7646 40.6974 35.2604C41.0725 34.7561 41.2832 34.0722 41.2832 33.3591V3.78343C41.2832 3.07034 41.0725 2.38646 40.6974 1.88223C40.3223 1.378 39.8136 1.09473 39.2832 1.09473V1.09473ZM1.2832 36.0479H15.2832V17.2269H8.2832L1.2832 25.9141V36.0479Z" stroke="black" stroke-width="2" stroke-linejoin="round"/>
<path d="M15.2832 38.7365C15.2832 40.1627 14.8618 41.5305 14.1116 42.5389C13.3615 43.5474 12.3441 44.1139 11.2832 44.1139C10.2223 44.1139 9.20492 43.5474 8.45478 42.5389C7.70463 41.5305 7.2832 40.1627 7.2832 38.7365M37.2832 38.7365C37.2832 40.1627 36.8618 41.5305 36.1116 42.5389C35.3615 43.5474 34.3441 44.1139 33.2832 44.1139C32.2223 44.1139 31.2049 43.5474 30.4548 42.5389C29.7046 41.5305 29.2832 40.1627 29.2832 38.7365" stroke="black" stroke-width="2" stroke-linecap="round" stroke-linejoin="round"/>
</svg>
